Coordinates
version=1
nRows=12
nColumns=24
inDegrees=yes

Units are S.I. units (second, meters, Newtons, ...)
Angles are in degrees.

endheader
time	pelvis_tilt	pelvis_list	pelvis_rotation	pelvis_tx	pelvis_ty	pelvis_tz	hip_flexion_r	hip_adduction_r	hip_rotation_r	knee_angle_r	ankle_angle_r	subtalar_angle_r	mtp_angle_r	hip_flexion_l	hip_adduction_l	hip_rotation_l	knee_angle_l	ankle_angle_l	subtalar_angle_l	mtp_angle_l	lumbar_extension	lumbar_bending	lumbar_rotation
      1.15850000	      5.67055468	      4.63702685	     -4.58629852	      0.12754995	      1.02356692	      0.27593287	      8.71553489	     -5.26135083	     -2.20980103	    -64.00182286	      5.08604808	    -22.70209982	     -0.36487198	      5.43206492	      7.08682961	     -2.28412739	    -13.55634368	      3.46068130	    -11.50644170	      4.22921188	    -12.37759550	     -6.74925388	      6.24891674
      1.16266667	      5.65439670	      4.49603611	     -4.52224466	      0.13269539	      1.02450139	      0.27566478	      9.16542942	     -4.99535410	     -2.16650041	    -63.43865461	      5.33018365	    -22.76347384	     -0.49000843	      4.96326057	      6.99828156	     -2.09636749	    -13.27018578	      3.55999455	    -11.61179039	      4.14776513	    -12.42374746	     -6.59863914	      6.00577837
      1.16683333	      5.60566106	      4.35590352	     -4.47800925	      0.13784540	      1.02536992	      0.27544081	      9.64505931	     -4.72089632	     -2.09318399	    -62.81837181	      5.58390780	    -22.77321794	     -0.51730282	      4.53840865	      6.89406916	     -2.00460495	    -13.00017443	      3.67150453	    -11.60626146	      4.12549775	    -12.42812175	     -6.42687461	      5.93312448
      1.17100000	      5.56051554	      4.20862919	     -4.40939834	      0.14300168	      1.02623518	      0.27522351	     10.09132757	     -4.43796602	     -2.04245383	    -62.11525168	      5.79711760	    -22.76480701	     -0.55199670	      4.10312291	      6.78289461	     -1.86157769	    -12.71857836	      3.77898079	    -11.62914253	      4.09264076	    -12.43702648	     -6.26485857	      5.78909278
      1.17516667	      5.52792686	      4.07114284	     -4.34013348	      0.14816209	      1.02707133	      0.27499622	     10.51165019	     -4.17227667	     -1.99282103	    -61.35768127	      5.99472806	    -22.74252782	     -0.58047072	      3.64999066	      6.68093882	     -1.72859839	    -12.42442560	      3.87707367	    -11.64934230	      4.05986914	    -12.45446382	     -6.10465613	      5.63158348
      1.17933333	      5.49834553	      3.93730567	     -4.26304145	      0.15331739	      1.02788721	      0.27478149	     10.91046648	     -3.91202449	     -1.95087417	    -60.53733154	      6.16614803	    -22.70231321	     -0.60715799	      3.18915252	      6.58140296	     -1.58569889	    -12.11729349	      3.96767348	    -11.67506036	      4.02269239	    -12.47894888	     -5.94771869	      5.45096892
      1.18350000	      5.48794554	      3.82876478	     -4.17453066	      0.15847944	      1.02868196	      0.27454651	     11.27510462	     -3.69123162	     -1.92553586	    -59.66903745	      6.30067296	    -22.66228107	     -0.65575591	      2.68987164	      6.51636293	     -1.37675190	    -11.76830641	      4.05440848	    -11.76492968	      3.94297525	    -12.52795541	     -5.82067287	      5.15789117
      1.18766667	      5.43141595	      3.68657325	     -4.09075839	      0.16364052	      1.02938375	      0.27435812	     11.66803490	     -3.41866635	     -1.87991452	    -58.73484205	      6.44138917	    -22.59241042	     -0.67165347	      2.26714550	      6.39456871	     -1.27413715	    -11.47819571	      4.13104016	    -11.74758229	      3.90811724	    -12.51579908	     -5.65390285	      5.04309880
      1.19183333	      5.41726151	      3.58047517	     -3.99205261	      0.16879290	      1.03008755	      0.27414598	     12.00319203	     -3.20086099	     -1.85333247	    -57.75974728	      6.52757200	    -22.55034901	     -0.70736710	      1.77775293	      6.32258727	     -1.08248239	    -11.13715033	      4.21993612	    -11.80087726	      3.82014756	    -12.56212409	     -5.53359052	      4.75451558
      1.19600000	      5.34310812	      3.46196292	     -3.89852526	      0.17396947	      1.03067261	      0.27395966	     12.38629420	     -2.96337339	     -1.81690115	    -56.73281035	      6.61534537	    -22.45590577	     -0.71753980	      1.37396041	      6.22079150	     -0.98341509	    -10.84017047	      4.29595216	    -11.77571700	      3.78575620	    -12.52251183	     -5.38685065	      4.63805469
      1.20016667	      5.34168239	      3.35236212	     -3.78483008	      0.17912076	      1.03131900	      0.27375077	     12.66743673	     -2.75077438	     -1.80645806	    -55.64906781	      6.63785706	    -22.42266191	     -0.73932171	      0.87170595	      6.13928155	     -0.79461662	    -10.49856433	      4.39482156	    -11.80703210	      3.70555966	    -12.58299998	     -5.25958168	      4.34429556
      1.20433333	      5.29453771	      3.24792873	     -3.67294188	      0.18429158	      1.03184473	      0.27355664	     12.98667139	     -2.54381537	     -1.79173609	    -54.53021643	      6.65712640	    -22.34498481	     -0.75455709	      0.43043297	      6.05364184	     -0.64903827	    -10.17892260	      4.47871805	    -11.81747115	      3.63153988	    -12.57559935	     -5.13007622	      4.12547404
